<svg width="153" height="26" viewBox="0 0 153 26" fill="none" xmlns="http://www.w3.org/2000/svg">
<path d="M125.63 20V17.396L131.132 12.251C131.524 11.887 131.811 11.565 131.993 11.285C132.189 11.005 132.315 10.753 132.371 10.529C132.441 10.291 132.476 10.074 132.476 9.878C132.476 9.402 132.315 9.031 131.993 8.765C131.685 8.499 131.216 8.366 130.586 8.366C130.054 8.366 129.557 8.485 129.095 8.723C128.633 8.961 128.255 9.318 127.961 9.794L124.874 8.072C125.42 7.148 126.211 6.406 127.247 5.846C128.283 5.286 129.522 5.006 130.964 5.006C132.098 5.006 133.092 5.188 133.946 5.552C134.8 5.916 135.465 6.434 135.941 7.106C136.431 7.778 136.676 8.569 136.676 9.479C136.676 9.955 136.613 10.431 136.487 10.907C136.361 11.369 136.116 11.866 135.752 12.398C135.402 12.916 134.877 13.497 134.177 14.141L129.809 18.173L129.116 16.703H137.075V20H125.63ZM138.015 17.186V14.477L144.609 5.3H148.914L142.509 14.477L140.535 13.889H152.022V17.186H138.015ZM145.785 20V17.186L145.911 13.889V11.39H149.838V20H145.785Z" fill="url(#paint0_linear_20662_2)"/>
<path d="M1.743 20V8.744C1.743 7.372 2.149 6.28 2.961 5.468C3.787 4.642 4.963 4.229 6.489 4.229C6.979 4.229 7.462 4.278 7.938 4.376C8.414 4.474 8.813 4.621 9.135 4.817L8.148 7.631C7.98 7.533 7.791 7.456 7.581 7.4C7.371 7.33 7.161 7.295 6.951 7.295C6.531 7.295 6.202 7.421 5.964 7.673C5.74 7.911 5.628 8.282 5.628 8.786V9.605L5.733 11.264V20H1.743ZM0.084 12.02V9.038H8.337V12.02H0.084ZM15.4012 20.189C14.1552 20.189 13.0492 19.937 12.0832 19.433C11.1172 18.929 10.3542 18.236 9.7942 17.354C9.2482 16.458 8.9752 15.436 8.9752 14.288C8.9752 13.14 9.2482 12.125 9.7942 11.243C10.3542 10.361 11.1172 9.675 12.0832 9.185C13.0492 8.681 14.1552 8.429 15.4012 8.429C16.6472 8.429 17.7532 8.681 18.7192 9.185C19.6992 9.675 20.4622 10.361 21.0082 11.243C21.5542 12.125 21.8272 13.14 21.8272 14.288C21.8272 15.436 21.5542 16.458 21.0082 17.354C20.4622 18.236 19.6992 18.929 18.7192 19.433C17.7532 19.937 16.6472 20.189 15.4012 20.189ZM15.4012 17.018C15.8632 17.018 16.2692 16.913 16.6192 16.703C16.9832 16.493 17.2702 16.185 17.4802 15.779C17.6902 15.359 17.7952 14.862 17.7952 14.288C17.7952 13.714 17.6902 13.231 17.4802 12.839C17.2702 12.433 16.9832 12.125 16.6192 11.915C16.2692 11.705 15.8632 11.6 15.4012 11.6C14.9532 11.6 14.5472 11.705 14.1832 11.915C13.8332 12.125 13.5462 12.433 13.3222 12.839C13.1122 13.231 13.0072 13.714 13.0072 14.288C13.0072 14.862 13.1122 15.359 13.3222 15.779C13.5462 16.185 13.8332 16.493 14.1832 16.703C14.5472 16.913 14.9532 17.018 15.4012 17.018ZM28.7575 20.189C27.3015 20.189 26.1675 19.832 25.3555 19.118C24.5435 18.39 24.1375 17.298 24.1375 15.842V6.077H28.1275V15.8C28.1275 16.206 28.2395 16.528 28.4635 16.766C28.6875 16.99 28.9745 17.102 29.3245 17.102C29.8005 17.102 30.2065 16.983 30.5425 16.745L31.5295 19.538C31.1935 19.762 30.7805 19.923 30.2905 20.021C29.8005 20.133 29.2895 20.189 28.7575 20.189ZM22.4785 12.02V9.038H30.7315V12.02H22.4785ZM38.452 20.189C37.206 20.189 36.1 19.937 35.134 19.433C34.168 18.929 33.405 18.236 32.845 17.354C32.299 16.458 32.026 15.436 32.026 14.288C32.026 13.14 32.299 12.125 32.845 11.243C33.405 10.361 34.168 9.675 35.134 9.185C36.1 8.681 37.206 8.429 38.452 8.429C39.698 8.429 40.804 8.681 41.77 9.185C42.75 9.675 43.513 10.361 44.059 11.243C44.605 12.125 44.878 13.14 44.878 14.288C44.878 15.436 44.605 16.458 44.059 17.354C43.513 18.236 42.75 18.929 41.77 19.433C40.804 19.937 39.698 20.189 38.452 20.189ZM38.452 17.018C38.914 17.018 39.32 16.913 39.67 16.703C40.034 16.493 40.321 16.185 40.531 15.779C40.741 15.359 40.846 14.862 40.846 14.288C40.846 13.714 40.741 13.231 40.531 12.839C40.321 12.433 40.034 12.125 39.67 11.915C39.32 11.705 38.914 11.6 38.452 11.6C38.004 11.6 37.598 11.705 37.234 11.915C36.884 12.125 36.597 12.433 36.373 12.839C36.163 13.231 36.058 13.714 36.058 14.288C36.058 14.862 36.163 15.359 36.373 15.779C36.597 16.185 36.884 16.493 37.234 16.703C37.598 16.913 38.004 17.018 38.452 17.018ZM53.8873 20.189C52.9213 20.189 52.0953 19.979 51.4093 19.559C50.7233 19.125 50.1983 18.481 49.8343 17.627C49.4843 16.759 49.3093 15.653 49.3093 14.309C49.3093 12.951 49.4773 11.845 49.8133 10.991C50.1493 10.123 50.6533 9.479 51.3253 9.059C52.0113 8.639 52.8653 8.429 53.8873 8.429C54.9233 8.429 55.8613 8.674 56.7013 9.164C57.5553 9.64 58.2273 10.319 58.7173 11.201C59.2213 12.069 59.4733 13.105 59.4733 14.309C59.4733 15.513 59.2213 16.556 58.7173 17.438C58.2273 18.32 57.5553 18.999 56.7013 19.475C55.8613 19.951 54.9233 20.189 53.8873 20.189ZM46.7263 24.074V8.618H50.5273V10.55L50.5063 14.309L50.7163 18.089V24.074H46.7263ZM53.0473 17.018C53.4953 17.018 53.8943 16.913 54.2443 16.703C54.6083 16.493 54.8953 16.185 55.1053 15.779C55.3293 15.373 55.4413 14.883 55.4413 14.309C55.4413 13.735 55.3293 13.245 55.1053 12.839C54.8953 12.433 54.6083 12.125 54.2443 11.915C53.8943 11.705 53.4953 11.6 53.0473 11.6C52.5993 11.6 52.1933 11.705 51.8293 11.915C51.4793 12.125 51.1923 12.433 50.9683 12.839C50.7583 13.245 50.6533 13.735 50.6533 14.309C50.6533 14.883 50.7583 15.373 50.9683 15.779C51.1923 16.185 51.4793 16.493 51.8293 16.703C52.1933 16.913 52.5993 17.018 53.0473 17.018ZM61.3279 20V8.618H65.1289V11.936L64.5619 10.991C64.8979 10.137 65.4439 9.5 66.1999 9.08C66.9559 8.646 67.8729 8.429 68.9509 8.429V12.02C68.7689 11.992 68.6079 11.978 68.4679 11.978C68.3419 11.964 68.2019 11.957 68.0479 11.957C67.2359 11.957 66.5779 12.181 66.0739 12.629C65.5699 13.063 65.3179 13.777 65.3179 14.771V20H61.3279ZM76.2069 20.189C74.9609 20.189 73.8549 19.937 72.8889 19.433C71.9229 18.929 71.1599 18.236 70.5999 17.354C70.0539 16.458 69.7809 15.436 69.7809 14.288C69.7809 13.14 70.0539 12.125 70.5999 11.243C71.1599 10.361 71.9229 9.675 72.8889 9.185C73.8549 8.681 74.9609 8.429 76.2069 8.429C77.4529 8.429 78.5589 8.681 79.5249 9.185C80.5049 9.675 81.2679 10.361 81.8139 11.243C82.3599 12.125 82.6329 13.14 82.6329 14.288C82.6329 15.436 82.3599 16.458 81.8139 17.354C81.2679 18.236 80.5049 18.929 79.5249 19.433C78.5589 19.937 77.4529 20.189 76.2069 20.189ZM76.2069 17.018C76.6689 17.018 77.0749 16.913 77.4249 16.703C77.7889 16.493 78.0759 16.185 78.2859 15.779C78.4959 15.359 78.6009 14.862 78.6009 14.288C78.6009 13.714 78.4959 13.231 78.2859 12.839C78.0759 12.433 77.7889 12.125 77.4249 11.915C77.0749 11.705 76.6689 11.6 76.2069 11.6C75.7589 11.6 75.3529 11.705 74.9889 11.915C74.6389 12.125 74.3519 12.433 74.1279 12.839C73.9179 13.231 73.8129 13.714 73.8129 14.288C73.8129 14.862 73.9179 15.359 74.1279 15.779C74.3519 16.185 74.6389 16.493 74.9889 16.703C75.3529 16.913 75.7589 17.018 76.2069 17.018ZM87.7992 17.9L87.9042 13.133L92.5452 8.618H97.2702L92.1252 13.931L90.0882 15.569L87.7992 17.9ZM84.4812 20V4.418H88.4712V20H84.4812ZM92.8392 20L89.3532 15.632L91.8312 12.566L97.6692 20H92.8392ZM105.624 20V17.879L105.351 17.354V13.448C105.351 12.818 105.155 12.335 104.763 11.999C104.385 11.649 103.776 11.474 102.936 11.474C102.39 11.474 101.837 11.565 101.277 11.747C100.717 11.915 100.241 12.153 99.8486 12.461L98.5046 9.752C99.1486 9.332 99.9186 9.01 100.815 8.786C101.725 8.548 102.628 8.429 103.524 8.429C105.372 8.429 106.8 8.856 107.808 9.71C108.83 10.55 109.341 11.873 109.341 13.679V20H105.624ZM102.264 20.189C101.354 20.189 100.584 20.035 99.9536 19.727C99.3236 19.419 98.8406 18.999 98.5046 18.467C98.1826 17.935 98.0216 17.34 98.0216 16.682C98.0216 15.982 98.1966 15.38 98.5466 14.876C98.9106 14.358 99.4636 13.966 100.206 13.7C100.948 13.42 101.907 13.28 103.083 13.28H105.771V15.359H103.629C102.985 15.359 102.53 15.464 102.264 15.674C102.012 15.884 101.886 16.164 101.886 16.514C101.886 16.864 102.019 17.144 102.285 17.354C102.551 17.564 102.915 17.669 103.377 17.669C103.811 17.669 104.203 17.564 104.553 17.354C104.917 17.13 105.183 16.794 105.351 16.346L105.897 17.816C105.687 18.6 105.274 19.195 104.658 19.601C104.056 19.993 103.258 20.189 102.264 20.189ZM116.941 20.189C115.485 20.189 114.351 19.832 113.539 19.118C112.727 18.39 112.321 17.298 112.321 15.842V6.077H116.311V15.8C116.311 16.206 116.423 16.528 116.647 16.766C116.871 16.99 117.158 17.102 117.508 17.102C117.984 17.102 118.39 16.983 118.726 16.745L119.713 19.538C119.377 19.762 118.964 19.923 118.474 20.021C117.984 20.133 117.473 20.189 116.941 20.189ZM110.662 12.02V9.038H118.915V12.02H110.662Z" fill="black"/>
<defs>
<linearGradient id="paint0_linear_20662_2" x1="153" y1="26" x2="125.264" y2="26" gradientUnits="userSpaceOnUse">
<stop stop-color="#8EE901"/>
<stop offset="1" stop-color="#4F9C2C"/>
</linearGradient>
</defs>
</svg>
