<svg width="333" height="217" viewBox="0 0 333 217" fill="none" xmlns="http://www.w3.org/2000/svg">
<rect y="157" width="60" height="60" rx="30" fill="url(#paint0_linear_20673_2)"/>
<g filter="url(#filter0_d_20673_2)">
<rect x="30" y="126" width="297" height="61" fill="white"/>
</g>
<g filter="url(#filter1_d_20673_2)">
<rect x="30" y="65" width="178" height="61" fill="white"/>
</g>
<g filter="url(#filter2_d_20673_2)">
<rect x="30" y="4" width="264" height="61" fill="white"/>
</g>
<path d="M66.32 45C66.1 44.28 65.85 43.54 65.57 42.78C65.31 42.02 65.05 41.26 64.79 40.5H56.69C56.43 41.26 56.16 42.02 55.88 42.78C55.62 43.54 55.38 44.28 55.16 45H50.3C51.08 42.76 51.82 40.69 52.52 38.79C53.22 36.89 53.9 35.1 54.56 33.42C55.24 31.74 55.9 30.15 56.54 28.65C57.2 27.13 57.88 25.65 58.58 24.21H63.05C63.73 25.65 64.4 27.13 65.06 28.65C65.72 30.15 66.38 31.74 67.04 33.42C67.72 35.1 68.41 36.89 69.11 38.79C69.81 40.69 70.55 42.76 71.33 45H66.32ZM60.71 28.92C60.61 29.22 60.46 29.63 60.26 30.15C60.06 30.67 59.83 31.27 59.57 31.95C59.31 32.63 59.02 33.38 58.7 34.2C58.4 35.02 58.09 35.88 57.77 36.78H63.68C63.36 35.88 63.05 35.02 62.75 34.2C62.45 33.38 62.16 32.63 61.88 31.95C61.62 31.27 61.39 30.67 61.19 30.15C60.99 29.63 60.83 29.22 60.71 28.92ZM80.2611 23.97C83.3611 23.97 85.7411 24.52 87.4011 25.62C89.0611 26.7 89.8911 28.48 89.8911 30.96C89.8911 33.46 89.0511 35.27 87.3711 36.39C85.6911 37.49 83.2911 38.04 80.1711 38.04H78.7011V45H74.0211V24.51C75.0411 24.31 76.1211 24.17 77.2611 24.09C78.4011 24.01 79.4011 23.97 80.2611 23.97ZM80.5611 27.96C80.2211 27.96 79.8811 27.97 79.5411 27.99C79.2211 28.01 78.9411 28.03 78.7011 28.05V34.05H80.1711C81.7911 34.05 83.0111 33.83 83.8311 33.39C84.6511 32.95 85.0611 32.13 85.0611 30.93C85.0611 30.35 84.9511 29.87 84.7311 29.49C84.5311 29.11 84.2311 28.81 83.8311 28.59C83.4511 28.35 82.9811 28.19 82.4211 28.11C81.8611 28.01 81.2411 27.96 80.5611 27.96ZM93.3277 45V24.21H107.368V28.14H98.0077V32.22H106.318V36.06H98.0077V41.07H108.058V45H93.3277ZM124.061 24.21H128.741V45H124.061V36.18H116.201V45H111.521V24.21H116.201V32.16H124.061V24.21ZM131.752 41.04H134.752C135.492 39.76 136.072 38.49 136.492 37.23C136.912 35.97 137.222 34.69 137.422 33.39C137.642 32.09 137.772 30.75 137.812 29.37C137.872 27.99 137.902 26.54 137.902 25.02V24.21H151.642V41.04H155.212V50.55H150.712V45H136.252V50.55H131.752V41.04ZM142.312 28.17C142.272 29.25 142.202 30.36 142.102 31.5C142.002 32.64 141.852 33.77 141.652 34.89C141.452 35.99 141.182 37.07 140.842 38.13C140.522 39.17 140.112 40.14 139.612 41.04H147.082V28.17H142.312ZM172.697 45C172.477 44.28 172.227 43.54 171.947 42.78C171.687 42.02 171.427 41.26 171.167 40.5H163.067C162.807 41.26 162.537 42.02 162.257 42.78C161.997 43.54 161.757 44.28 161.537 45H156.677C157.457 42.76 158.197 40.69 158.897 38.79C159.597 36.89 160.277 35.1 160.937 33.42C161.617 31.74 162.277 30.15 162.917 28.65C163.577 27.13 164.257 25.65 164.957 24.21H169.427C170.107 25.65 170.777 27.13 171.437 28.65C172.097 30.15 172.757 31.74 173.417 33.42C174.097 35.1 174.787 36.89 175.487 38.79C176.187 40.69 176.927 42.76 177.707 45H172.697ZM167.087 28.92C166.987 29.22 166.837 29.63 166.637 30.15C166.437 30.67 166.207 31.27 165.947 31.95C165.687 32.63 165.397 33.38 165.077 34.2C164.777 35.02 164.467 35.88 164.147 36.78H170.057C169.737 35.88 169.427 35.02 169.127 34.2C168.827 33.38 168.537 32.63 168.257 31.95C167.997 31.27 167.767 30.67 167.567 30.15C167.367 29.63 167.207 29.22 167.087 28.92ZM200.535 38.64C201.335 38.58 202.025 38.42 202.605 38.16C203.205 37.9 203.695 37.56 204.075 37.14C204.475 36.72 204.775 36.24 204.975 35.7C205.175 35.14 205.275 34.55 205.275 33.93C205.275 33.31 205.175 32.73 204.975 32.19C204.795 31.63 204.505 31.14 204.105 30.72C203.725 30.28 203.235 29.92 202.635 29.64C202.035 29.36 201.335 29.18 200.535 29.1V38.64ZM200.535 45H195.975V42.54C194.375 42.46 192.985 42.17 191.805 41.67C190.625 41.17 189.645 40.53 188.865 39.75C188.105 38.95 187.535 38.06 187.155 37.08C186.775 36.08 186.585 35.05 186.585 33.99C186.585 32.95 186.775 31.93 187.155 30.93C187.535 29.93 188.105 29.03 188.865 28.23C189.645 27.41 190.625 26.73 191.805 26.19C192.985 25.65 194.375 25.32 195.975 25.2V22.86H200.535V25.2C202.135 25.32 203.525 25.65 204.705 26.19C205.885 26.73 206.855 27.41 207.615 28.23C208.395 29.03 208.975 29.93 209.355 30.93C209.735 31.93 209.925 32.95 209.925 33.99C209.925 35.05 209.735 36.08 209.355 37.08C208.975 38.06 208.395 38.95 207.615 39.75C206.855 40.53 205.885 41.17 204.705 41.67C203.525 42.17 202.135 42.46 200.535 42.54V45ZM195.975 29.1C195.175 29.18 194.475 29.36 193.875 29.64C193.275 29.92 192.775 30.28 192.375 30.72C191.995 31.14 191.705 31.63 191.505 32.19C191.325 32.73 191.235 33.31 191.235 33.93C191.235 34.55 191.335 35.14 191.535 35.7C191.735 36.24 192.025 36.72 192.405 37.14C192.805 37.56 193.295 37.9 193.875 38.16C194.475 38.42 195.175 38.58 195.975 38.64V29.1ZM217.639 34.59C217.639 35.61 217.759 36.53 217.999 37.35C218.259 38.17 218.619 38.88 219.079 39.48C219.559 40.06 220.139 40.51 220.819 40.83C221.499 41.15 222.279 41.31 223.159 41.31C224.019 41.31 224.789 41.15 225.469 40.83C226.169 40.51 226.749 40.06 227.209 39.48C227.689 38.88 228.049 38.17 228.289 37.35C228.549 36.53 228.679 35.61 228.679 34.59C228.679 33.57 228.549 32.65 228.289 31.83C228.049 30.99 227.689 30.28 227.209 29.7C226.749 29.1 226.169 28.64 225.469 28.32C224.789 28 224.019 27.84 223.159 27.84C222.279 27.84 221.499 28.01 220.819 28.35C220.139 28.67 219.559 29.13 219.079 29.73C218.619 30.31 218.259 31.02 217.999 31.86C217.759 32.68 217.639 33.59 217.639 34.59ZM233.509 34.59C233.509 36.37 233.239 37.94 232.699 39.3C232.179 40.64 231.459 41.77 230.539 42.69C229.619 43.59 228.519 44.27 227.239 44.73C225.979 45.19 224.619 45.42 223.159 45.42C221.739 45.42 220.399 45.19 219.139 44.73C217.879 44.27 216.779 43.59 215.839 42.69C214.899 41.77 214.159 40.64 213.619 39.3C213.079 37.94 212.809 36.37 212.809 34.59C212.809 32.81 213.089 31.25 213.649 29.91C214.209 28.55 214.959 27.41 215.899 26.49C216.859 25.57 217.959 24.88 219.199 24.42C220.459 23.96 221.779 23.73 223.159 23.73C224.579 23.73 225.919 23.96 227.179 24.42C228.439 24.88 229.539 25.57 230.479 26.49C231.419 27.41 232.159 28.55 232.699 29.91C233.239 31.25 233.509 32.81 233.509 34.59ZM252.127 24.21V28.2H245.857V45H241.177V28.2H234.907V24.21H252.127ZM258.361 34.59C258.361 35.61 258.481 36.53 258.721 37.35C258.981 38.17 259.341 38.88 259.801 39.48C260.281 40.06 260.861 40.51 261.541 40.83C262.221 41.15 263.001 41.31 263.881 41.31C264.741 41.31 265.511 41.15 266.191 40.83C266.891 40.51 267.471 40.06 267.931 39.48C268.411 38.88 268.771 38.17 269.011 37.35C269.271 36.53 269.401 35.61 269.401 34.59C269.401 33.57 269.271 32.65 269.011 31.83C268.771 30.99 268.411 30.28 267.931 29.7C267.471 29.1 266.891 28.64 266.191 28.32C265.511 28 264.741 27.84 263.881 27.84C263.001 27.84 262.221 28.01 261.541 28.35C260.861 28.67 260.281 29.13 259.801 29.73C259.341 30.31 258.981 31.02 258.721 31.86C258.481 32.68 258.361 33.59 258.361 34.59ZM274.231 34.59C274.231 36.37 273.961 37.94 273.421 39.3C272.901 40.64 272.181 41.77 271.261 42.69C270.341 43.59 269.241 44.27 267.961 44.73C266.701 45.19 265.341 45.42 263.881 45.42C262.461 45.42 261.121 45.19 259.861 44.73C258.601 44.27 257.501 43.59 256.561 42.69C255.621 41.77 254.881 40.64 254.341 39.3C253.801 37.94 253.531 36.37 253.531 34.59C253.531 32.81 253.811 31.25 254.371 29.91C254.931 28.55 255.681 27.41 256.621 26.49C257.581 25.57 258.681 24.88 259.921 24.42C261.181 23.96 262.501 23.73 263.881 23.73C265.301 23.73 266.641 23.96 267.901 24.42C269.161 24.88 270.261 25.57 271.201 26.49C272.141 27.41 272.881 28.55 273.421 29.91C273.961 31.25 274.231 32.81 274.231 34.59ZM52.4 106V85.21H57.05V97.48C57.77 96.4 58.54 95.28 59.36 94.12C60.18 92.94 61 91.81 61.82 90.73C62.66 89.63 63.48 88.6 64.28 87.64C65.08 86.68 65.81 85.87 66.47 85.21H70.28V106H65.66V92.38C63.9 94.44 62.24 96.63 60.68 98.95C59.12 101.27 57.67 103.62 56.33 106H52.4ZM89.2128 106.27C88.0728 106.27 86.9328 106.23 85.7928 106.15C84.6728 106.09 83.5028 105.93 82.2828 105.67V85.51C83.2428 85.33 84.2928 85.2 85.4328 85.12C86.5728 85.02 87.6328 84.97 88.6128 84.97C89.9328 84.97 91.1428 85.07 92.2428 85.27C93.3628 85.45 94.3228 85.77 95.1228 86.23C95.9228 86.69 96.5428 87.3 96.9828 88.06C97.4428 88.8 97.6728 89.72 97.6728 90.82C97.6728 92.48 96.8728 93.79 95.2728 94.75C96.5928 95.25 97.4928 95.93 97.9728 96.79C98.4528 97.65 98.6928 98.62 98.6928 99.7C98.6928 101.88 97.8928 103.52 96.2928 104.62C94.7128 105.72 92.3528 106.27 89.2128 106.27ZM86.8428 96.94V102.31C87.1828 102.35 87.5528 102.38 87.9528 102.4C88.3528 102.42 88.7928 102.43 89.2728 102.43C90.6728 102.43 91.8028 102.23 92.6628 101.83C93.5228 101.43 93.9528 100.69 93.9528 99.61C93.9528 98.65 93.5928 97.97 92.8728 97.57C92.1528 97.15 91.1228 96.94 89.7828 96.94H86.8428ZM86.8428 93.37H89.1228C90.5628 93.37 91.5928 93.19 92.2128 92.83C92.8328 92.45 93.1428 91.85 93.1428 91.03C93.1428 90.19 92.8228 89.6 92.1828 89.26C91.5428 88.92 90.6028 88.75 89.3628 88.75C88.9628 88.75 88.5328 88.76 88.0728 88.78C87.6128 88.78 87.2028 88.8 86.8428 88.84V93.37ZM102.439 106V85.21H107.089V97.48C107.809 96.4 108.579 95.28 109.399 94.12C110.219 92.94 111.039 91.81 111.859 90.73C112.699 89.63 113.519 88.6 114.319 87.64C115.119 86.68 115.849 85.87 116.509 85.21H120.319V106H115.699V92.38C113.939 94.44 112.279 96.63 110.719 98.95C109.159 101.27 107.709 103.62 106.369 106H102.439ZM123.315 102.04H126.315C127.055 100.76 127.635 99.49 128.055 98.23C128.475 96.97 128.785 95.69 128.985 94.39C129.205 93.09 129.335 91.75 129.375 90.37C129.435 88.99 129.465 87.54 129.465 86.02V85.21H143.205V102.04H146.775V111.55H142.275V106H127.815V111.55H123.315V102.04ZM133.875 89.17C133.835 90.25 133.765 91.36 133.665 92.5C133.565 93.64 133.415 94.77 133.215 95.89C133.015 96.99 132.745 98.07 132.405 99.13C132.085 100.17 131.675 101.14 131.175 102.04H138.645V89.17H133.875ZM149.783 106V85.21H163.823V89.14H154.463V93.22H162.773V97.06H154.463V102.07H164.513V106H149.783ZM171.379 95.59C171.379 96.61 171.499 97.53 171.739 98.35C171.999 99.17 172.359 99.88 172.819 100.48C173.299 101.06 173.879 101.51 174.559 101.83C175.239 102.15 176.019 102.31 176.899 102.31C177.759 102.31 178.529 102.15 179.209 101.83C179.909 101.51 180.489 101.06 180.949 100.48C181.429 99.88 181.789 99.17 182.029 98.35C182.289 97.53 182.419 96.61 182.419 95.59C182.419 94.57 182.289 93.65 182.029 92.83C181.789 91.99 181.429 91.28 180.949 90.7C180.489 90.1 179.909 89.64 179.209 89.32C178.529 89 177.759 88.84 176.899 88.84C176.019 88.84 175.239 89.01 174.559 89.35C173.879 89.67 173.299 90.13 172.819 90.73C172.359 91.31 171.999 92.02 171.739 92.86C171.499 93.68 171.379 94.59 171.379 95.59ZM187.249 95.59C187.249 97.37 186.979 98.94 186.439 100.3C185.919 101.64 185.199 102.77 184.279 103.69C183.359 104.59 182.259 105.27 180.979 105.73C179.719 106.19 178.359 106.42 176.899 106.42C175.479 106.42 174.139 106.19 172.879 105.73C171.619 105.27 170.519 104.59 169.579 103.69C168.639 102.77 167.899 101.64 167.359 100.3C166.819 98.94 166.549 97.37 166.549 95.59C166.549 93.81 166.829 92.25 167.389 90.91C167.949 89.55 168.699 88.41 169.639 87.49C170.599 86.57 171.699 85.88 172.939 85.42C174.199 84.96 175.519 84.73 176.899 84.73C178.319 84.73 179.659 84.96 180.919 85.42C182.179 85.88 183.279 86.57 184.219 87.49C185.159 88.41 185.899 89.55 186.439 90.91C186.979 92.25 187.249 93.81 187.249 95.59ZM56.33 156.59C56.33 157.61 56.45 158.53 56.69 159.35C56.95 160.17 57.31 160.88 57.77 161.48C58.25 162.06 58.83 162.51 59.51 162.83C60.19 163.15 60.97 163.31 61.85 163.31C62.71 163.31 63.48 163.15 64.16 162.83C64.86 162.51 65.44 162.06 65.9 161.48C66.38 160.88 66.74 160.17 66.98 159.35C67.24 158.53 67.37 157.61 67.37 156.59C67.37 155.57 67.24 154.65 66.98 153.83C66.74 152.99 66.38 152.28 65.9 151.7C65.44 151.1 64.86 150.64 64.16 150.32C63.48 150 62.71 149.84 61.85 149.84C60.97 149.84 60.19 150.01 59.51 150.35C58.83 150.67 58.25 151.13 57.77 151.73C57.31 152.31 56.95 153.02 56.69 153.86C56.45 154.68 56.33 155.59 56.33 156.59ZM72.2 156.59C72.2 158.37 71.93 159.94 71.39 161.3C70.87 162.64 70.15 163.77 69.23 164.69C68.31 165.59 67.21 166.27 65.93 166.73C64.67 167.19 63.31 167.42 61.85 167.42C60.43 167.42 59.09 167.19 57.83 166.73C56.57 166.27 55.47 165.59 54.53 164.69C53.59 163.77 52.85 162.64 52.31 161.3C51.77 159.94 51.5 158.37 51.5 156.59C51.5 154.81 51.78 153.25 52.34 151.91C52.9 150.55 53.65 149.41 54.59 148.49C55.55 147.57 56.65 146.88 57.89 146.42C59.15 145.96 60.47 145.73 61.85 145.73C63.27 145.73 64.61 145.96 65.87 146.42C67.13 146.88 68.23 147.57 69.17 148.49C70.11 149.41 70.85 150.55 71.39 151.91C71.93 153.25 72.2 154.81 72.2 156.59ZM80.5712 150.17V153.59H82.1012C83.6412 153.59 85.0112 153.71 86.2112 153.95C87.4312 154.19 88.4512 154.58 89.2712 155.12C90.1112 155.66 90.7512 156.36 91.1912 157.22C91.6312 158.08 91.8512 159.13 91.8512 160.37C91.8512 162.67 91.0112 164.39 89.3312 165.53C87.6712 166.65 85.2912 167.21 82.1912 167.21C81.3512 167.21 80.3912 167.16 79.3112 167.06C78.2512 166.96 77.1812 166.78 76.1012 166.52V146.21H89.9012V150.17H80.5712ZM82.4312 163.22C83.0512 163.22 83.6412 163.18 84.2012 163.1C84.7612 163.02 85.2512 162.88 85.6712 162.68C86.1112 162.46 86.4612 162.17 86.7212 161.81C86.9812 161.45 87.1112 160.98 87.1112 160.4C87.1112 159.8 86.9912 159.31 86.7512 158.93C86.5112 158.55 86.1712 158.25 85.7312 158.03C85.2912 157.81 84.7512 157.66 84.1112 157.58C83.4712 157.5 82.7512 157.46 81.9512 157.46H80.5712V163.16C80.7912 163.18 81.0512 163.2 81.3512 163.22C81.6712 163.22 82.0312 163.22 82.4312 163.22ZM99.5429 156.59C99.5429 157.61 99.6629 158.53 99.9029 159.35C100.163 160.17 100.523 160.88 100.983 161.48C101.463 162.06 102.043 162.51 102.723 162.83C103.403 163.15 104.183 163.31 105.063 163.31C105.923 163.31 106.693 163.15 107.373 162.83C108.073 162.51 108.653 162.06 109.113 161.48C109.593 160.88 109.953 160.17 110.193 159.35C110.453 158.53 110.583 157.61 110.583 156.59C110.583 155.57 110.453 154.65 110.193 153.83C109.953 152.99 109.593 152.28 109.113 151.7C108.653 151.1 108.073 150.64 107.373 150.32C106.693 150 105.923 149.84 105.063 149.84C104.183 149.84 103.403 150.01 102.723 150.35C102.043 150.67 101.463 151.13 100.983 151.73C100.523 152.31 100.163 153.02 99.9029 153.86C99.6629 154.68 99.5429 155.59 99.5429 156.59ZM115.413 156.59C115.413 158.37 115.143 159.94 114.603 161.3C114.083 162.64 113.363 163.77 112.443 164.69C111.523 165.59 110.423 166.27 109.143 166.73C107.883 167.19 106.523 167.42 105.063 167.42C103.643 167.42 102.303 167.19 101.043 166.73C99.7829 166.27 98.6829 165.59 97.7429 164.69C96.8029 163.77 96.0629 162.64 95.5229 161.3C94.9829 159.94 94.7129 158.37 94.7129 156.59C94.7129 154.81 94.9929 153.25 95.5529 151.91C96.1129 150.55 96.8629 149.41 97.8029 148.49C98.7629 147.57 99.8629 146.88 101.103 146.42C102.363 145.96 103.683 145.73 105.063 145.73C106.483 145.73 107.823 145.96 109.083 146.42C110.343 146.88 111.443 147.57 112.383 148.49C113.323 149.41 114.063 150.55 114.603 151.91C115.143 153.25 115.413 154.81 115.413 156.59ZM125.554 145.97C128.654 145.97 131.034 146.52 132.694 147.62C134.354 148.7 135.184 150.48 135.184 152.96C135.184 155.46 134.344 157.27 132.664 158.39C130.984 159.49 128.584 160.04 125.464 160.04H123.994V167H119.314V146.51C120.334 146.31 121.414 146.17 122.554 146.09C123.694 146.01 124.694 145.97 125.554 145.97ZM125.854 149.96C125.514 149.96 125.174 149.97 124.834 149.99C124.514 150.01 124.234 150.03 123.994 150.05V156.05H125.464C127.084 156.05 128.304 155.83 129.124 155.39C129.944 154.95 130.354 154.13 130.354 152.93C130.354 152.35 130.244 151.87 130.024 151.49C129.824 151.11 129.524 150.81 129.124 150.59C128.744 150.35 128.274 150.19 127.714 150.11C127.154 150.01 126.534 149.96 125.854 149.96ZM149.691 160.91C149.111 162.23 148.501 163.32 147.861 164.18C147.221 165.02 146.561 165.68 145.881 166.16C145.201 166.64 144.511 166.97 143.811 167.15C143.111 167.33 142.401 167.42 141.681 167.42C141.001 167.42 140.291 167.35 139.551 167.21C138.831 167.09 138.151 166.91 137.511 166.67L138.351 162.92C139.331 163.28 140.301 163.46 141.261 163.46C141.881 163.46 142.471 163.32 143.031 163.04C143.611 162.76 144.161 162.16 144.681 161.24C143.861 159.96 143.071 158.65 142.311 157.31C141.571 155.95 140.861 154.62 140.181 153.32C139.521 152 138.901 150.74 138.321 149.54C137.761 148.32 137.261 147.21 136.821 146.21H142.011C142.331 146.99 142.681 147.83 143.061 148.73C143.461 149.61 143.881 150.53 144.321 151.49C144.761 152.43 145.201 153.38 145.641 154.34C146.101 155.28 146.541 156.2 146.961 157.1C147.601 155.34 148.211 153.54 148.791 151.7C149.371 149.86 149.931 148.03 150.471 146.21H155.481C154.961 147.75 154.451 149.19 153.951 150.53C153.451 151.87 152.961 153.14 152.481 154.34C152.001 155.54 151.521 156.68 151.041 157.76C150.581 158.84 150.131 159.89 149.691 160.91ZM154.575 163.04H157.575C158.315 161.76 158.895 160.49 159.315 159.23C159.735 157.97 160.045 156.69 160.245 155.39C160.465 154.09 160.595 152.75 160.635 151.37C160.695 149.99 160.725 148.54 160.725 147.02V146.21H174.465V163.04H178.035V172.55H173.535V167H159.075V172.55H154.575V163.04ZM165.135 150.17C165.095 151.25 165.025 152.36 164.925 153.5C164.825 154.64 164.675 155.77 164.475 156.89C164.275 157.99 164.005 159.07 163.665 160.13C163.345 161.17 162.935 162.14 162.435 163.04H169.905V150.17H165.135ZM184.973 156.59C184.973 157.61 185.093 158.53 185.333 159.35C185.593 160.17 185.953 160.88 186.413 161.48C186.893 162.06 187.473 162.51 188.153 162.83C188.833 163.15 189.613 163.31 190.493 163.31C191.353 163.31 192.123 163.15 192.803 162.83C193.503 162.51 194.083 162.06 194.543 161.48C195.023 160.88 195.383 160.17 195.623 159.35C195.883 158.53 196.013 157.61 196.013 156.59C196.013 155.57 195.883 154.65 195.623 153.83C195.383 152.99 195.023 152.28 194.543 151.7C194.083 151.1 193.503 150.64 192.803 150.32C192.123 150 191.353 149.84 190.493 149.84C189.613 149.84 188.833 150.01 188.153 150.35C187.473 150.67 186.893 151.13 186.413 151.73C185.953 152.31 185.593 153.02 185.333 153.86C185.093 154.68 184.973 155.59 184.973 156.59ZM200.843 156.59C200.843 158.37 200.573 159.94 200.033 161.3C199.513 162.64 198.793 163.77 197.873 164.69C196.953 165.59 195.853 166.27 194.573 166.73C193.313 167.19 191.953 167.42 190.493 167.42C189.073 167.42 187.733 167.19 186.473 166.73C185.213 166.27 184.113 165.59 183.173 164.69C182.233 163.77 181.493 162.64 180.953 161.3C180.413 159.94 180.143 158.37 180.143 156.59C180.143 154.81 180.423 153.25 180.983 151.91C181.543 150.55 182.293 149.41 183.233 148.49C184.193 147.57 185.293 146.88 186.533 146.42C187.793 145.96 189.113 145.73 190.493 145.73C191.913 145.73 193.253 145.96 194.513 146.42C195.773 146.88 196.873 147.57 197.813 148.49C198.753 149.41 199.493 150.55 200.033 151.91C200.573 153.25 200.843 154.81 200.843 156.59ZM211.674 167.27C210.534 167.27 209.394 167.23 208.254 167.15C207.134 167.09 205.964 166.93 204.744 166.67V146.51C205.704 146.33 206.754 146.2 207.894 146.12C209.034 146.02 210.094 145.97 211.074 145.97C212.394 145.97 213.604 146.07 214.704 146.27C215.824 146.45 216.784 146.77 217.584 147.23C218.384 147.69 219.004 148.3 219.444 149.06C219.904 149.8 220.134 150.72 220.134 151.82C220.134 153.48 219.334 154.79 217.734 155.75C219.054 156.25 219.954 156.93 220.434 157.79C220.914 158.65 221.154 159.62 221.154 160.7C221.154 162.88 220.354 164.52 218.754 165.62C217.174 166.72 214.814 167.27 211.674 167.27ZM209.304 157.94V163.31C209.644 163.35 210.014 163.38 210.414 163.4C210.814 163.42 211.254 163.43 211.734 163.43C213.134 163.43 214.264 163.23 215.124 162.83C215.984 162.43 216.414 161.69 216.414 160.61C216.414 159.65 216.054 158.97 215.334 158.57C214.614 158.15 213.584 157.94 212.244 157.94H209.304ZM209.304 154.37H211.584C213.024 154.37 214.054 154.19 214.674 153.83C215.294 153.45 215.604 152.85 215.604 152.03C215.604 151.19 215.284 150.6 214.644 150.26C214.004 149.92 213.064 149.75 211.824 149.75C211.424 149.75 210.994 149.76 210.534 149.78C210.074 149.78 209.664 149.8 209.304 149.84V154.37ZM238.527 167C238.307 166.28 238.057 165.54 237.777 164.78C237.517 164.02 237.257 163.26 236.997 162.5H228.897C228.637 163.26 228.367 164.02 228.087 164.78C227.827 165.54 227.587 166.28 227.367 167H222.507C223.287 164.76 224.027 162.69 224.727 160.79C225.427 158.89 226.107 157.1 226.767 155.42C227.447 153.74 228.107 152.15 228.747 150.65C229.407 149.13 230.087 147.65 230.787 146.21H235.257C235.937 147.65 236.607 149.13 237.267 150.65C237.927 152.15 238.587 153.74 239.247 155.42C239.927 157.1 240.617 158.89 241.317 160.79C242.017 162.69 242.757 164.76 243.537 167H238.527ZM232.917 150.92C232.817 151.22 232.667 151.63 232.467 152.15C232.267 152.67 232.037 153.27 231.777 153.95C231.517 154.63 231.227 155.38 230.907 156.2C230.607 157.02 230.297 157.88 229.977 158.78H235.887C235.567 157.88 235.257 157.02 234.957 156.2C234.657 155.38 234.367 154.63 234.087 153.95C233.827 153.27 233.597 152.67 233.397 152.15C233.197 151.63 233.037 151.22 232.917 150.92ZM258.768 146.21H263.448V167H258.768V158.18H250.908V167H246.228V146.21H250.908V154.16H258.768V146.21ZM268.259 167V146.21H272.909V158.48C273.629 157.4 274.399 156.28 275.219 155.12C276.039 153.94 276.859 152.81 277.679 151.73C278.519 150.63 279.339 149.6 280.139 148.64C280.939 147.68 281.669 146.87 282.329 146.21H286.139V167H281.519V153.38C279.759 155.44 278.099 157.63 276.539 159.95C274.979 162.27 273.529 164.62 272.189 167H268.259ZM300.295 150.02C299.695 150.02 299.115 150.07 298.555 150.17C298.015 150.25 297.535 150.4 297.115 150.62C296.695 150.82 296.355 151.11 296.095 151.49C295.835 151.85 295.705 152.31 295.705 152.87C295.705 153.93 296.075 154.66 296.815 155.06C297.575 155.46 298.695 155.66 300.175 155.66H302.125V150.05C301.885 150.03 301.625 150.02 301.345 150.02C301.065 150.02 300.715 150.02 300.295 150.02ZM300.505 146C301.345 146 302.325 146.05 303.445 146.15C304.585 146.25 305.705 146.42 306.805 146.66V167H302.125V159.53H300.685C300.425 159.53 300.175 159.53 299.935 159.53C299.695 159.53 299.405 159.51 299.065 159.47C298.405 160.37 297.675 161.5 296.875 162.86C296.095 164.2 295.365 165.58 294.685 167H289.735C290.095 166.18 290.475 165.37 290.875 164.57C291.295 163.77 291.715 163.01 292.135 162.29C292.555 161.57 292.965 160.91 293.365 160.31C293.765 159.69 294.135 159.15 294.475 158.69C294.035 158.49 293.595 158.23 293.155 157.91C292.735 157.57 292.355 157.17 292.015 156.71C291.675 156.25 291.395 155.71 291.175 155.09C290.975 154.45 290.875 153.72 290.875 152.9C290.875 151.76 291.095 150.76 291.535 149.9C291.995 149.04 292.635 148.32 293.455 147.74C294.295 147.16 295.305 146.73 296.485 146.45C297.685 146.15 299.025 146 300.505 146Z" fill="black"/>
<path d="M66.32 45C66.1 44.28 65.85 43.54 65.57 42.78C65.31 42.02 65.05 41.26 64.79 40.5H56.69C56.43 41.26 56.16 42.02 55.88 42.78C55.62 43.54 55.38 44.28 55.16 45H50.3C51.08 42.76 51.82 40.69 52.52 38.79C53.22 36.89 53.9 35.1 54.56 33.42C55.24 31.74 55.9 30.15 56.54 28.65C57.2 27.13 57.88 25.65 58.58 24.21H63.05C63.73 25.65 64.4 27.13 65.06 28.65C65.72 30.15 66.38 31.74 67.04 33.42C67.72 35.1 68.41 36.89 69.11 38.79C69.81 40.69 70.55 42.76 71.33 45H66.32ZM60.71 28.92C60.61 29.22 60.46 29.63 60.26 30.15C60.06 30.67 59.83 31.27 59.57 31.95C59.31 32.63 59.02 33.38 58.7 34.2C58.4 35.02 58.09 35.88 57.77 36.78H63.68C63.36 35.88 63.05 35.02 62.75 34.2C62.45 33.38 62.16 32.63 61.88 31.95C61.62 31.27 61.39 30.67 61.19 30.15C60.99 29.63 60.83 29.22 60.71 28.92ZM80.2611 23.97C83.3611 23.97 85.7411 24.52 87.4011 25.62C89.0611 26.7 89.8911 28.48 89.8911 30.96C89.8911 33.46 89.0511 35.27 87.3711 36.39C85.6911 37.49 83.2911 38.04 80.1711 38.04H78.7011V45H74.0211V24.51C75.0411 24.31 76.1211 24.17 77.2611 24.09C78.4011 24.01 79.4011 23.97 80.2611 23.97ZM80.5611 27.96C80.2211 27.96 79.8811 27.97 79.5411 27.99C79.2211 28.01 78.9411 28.03 78.7011 28.05V34.05H80.1711C81.7911 34.05 83.0111 33.83 83.8311 33.39C84.6511 32.95 85.0611 32.13 85.0611 30.93C85.0611 30.35 84.9511 29.87 84.7311 29.49C84.5311 29.11 84.2311 28.81 83.8311 28.59C83.4511 28.35 82.9811 28.19 82.4211 28.11C81.8611 28.01 81.2411 27.96 80.5611 27.96ZM93.3277 45V24.21H107.368V28.14H98.0077V32.22H106.318V36.06H98.0077V41.07H108.058V45H93.3277ZM124.061 24.21H128.741V45H124.061V36.18H116.201V45H111.521V24.21H116.201V32.16H124.061V24.21ZM131.752 41.04H134.752C135.492 39.76 136.072 38.49 136.492 37.23C136.912 35.97 137.222 34.69 137.422 33.39C137.642 32.09 137.772 30.75 137.812 29.37C137.872 27.99 137.902 26.54 137.902 25.02V24.21H151.642V41.04H155.212V50.55H150.712V45H136.252V50.55H131.752V41.04ZM142.312 28.17C142.272 29.25 142.202 30.36 142.102 31.5C142.002 32.64 141.852 33.77 141.652 34.89C141.452 35.99 141.182 37.07 140.842 38.13C140.522 39.17 140.112 40.14 139.612 41.04H147.082V28.17H142.312ZM172.697 45C172.477 44.28 172.227 43.54 171.947 42.78C171.687 42.02 171.427 41.26 171.167 40.5H163.067C162.807 41.26 162.537 42.02 162.257 42.78C161.997 43.54 161.757 44.28 161.537 45H156.677C157.457 42.76 158.197 40.69 158.897 38.79C159.597 36.89 160.277 35.1 160.937 33.42C161.617 31.74 162.277 30.15 162.917 28.65C163.577 27.13 164.257 25.65 164.957 24.21H169.427C170.107 25.65 170.777 27.13 171.437 28.65C172.097 30.15 172.757 31.74 173.417 33.42C174.097 35.1 174.787 36.89 175.487 38.79C176.187 40.69 176.927 42.76 177.707 45H172.697ZM167.087 28.92C166.987 29.22 166.837 29.63 166.637 30.15C166.437 30.67 166.207 31.27 165.947 31.95C165.687 32.63 165.397 33.38 165.077 34.2C164.777 35.02 164.467 35.88 164.147 36.78H170.057C169.737 35.88 169.427 35.02 169.127 34.2C168.827 33.38 168.537 32.63 168.257 31.95C167.997 31.27 167.767 30.67 167.567 30.15C167.367 29.63 167.207 29.22 167.087 28.92Z" fill="url(#paint1_linear_20673_2)"/>
<defs>
<filter id="filter0_d_20673_2" x="24" y="122" width="309" height="73" filterUnits="userSpaceOnUse" color-interpolation-filters="sRGB">
<feFlood flood-opacity="0" result="BackgroundImageFix"/>
<feColorMatrix in="SourceAlpha" type="matrix" values="0 0 0 0 0 0 0 0 0 0 0 0 0 0 0 0 0 0 127 0" result="hardAlpha"/>
<feOffset dy="2"/>
<feGaussianBlur stdDeviation="3"/>
<feColorMatrix type="matrix" values="0 0 0 0 0 0 0 0 0 0 0 0 0 0 0 0 0 0 0.15 0"/>
<feBlend mode="normal" in2="BackgroundImageFix" result="effect1_dropShadow_20673_2"/>
<feBlend mode="normal" in="SourceGraphic" in2="effect1_dropShadow_20673_2" result="shape"/>
</filter>
<filter id="filter1_d_20673_2" x="24" y="61" width="190" height="73" filterUnits="userSpaceOnUse" color-interpolation-filters="sRGB">
<feFlood flood-opacity="0" result="BackgroundImageFix"/>
<feColorMatrix in="SourceAlpha" type="matrix" values="0 0 0 0 0 0 0 0 0 0 0 0 0 0 0 0 0 0 127 0" result="hardAlpha"/>
<feOffset dy="2"/>
<feGaussianBlur stdDeviation="3"/>
<feColorMatrix type="matrix" values="0 0 0 0 0 0 0 0 0 0 0 0 0 0 0 0 0 0 0.15 0"/>
<feBlend mode="normal" in2="BackgroundImageFix" result="effect1_dropShadow_20673_2"/>
<feBlend mode="normal" in="SourceGraphic" in2="effect1_dropShadow_20673_2" result="shape"/>
</filter>
<filter id="filter2_d_20673_2" x="24" y="0" width="276" height="73" filterUnits="userSpaceOnUse" color-interpolation-filters="sRGB">
<feFlood flood-opacity="0" result="BackgroundImageFix"/>
<feColorMatrix in="SourceAlpha" type="matrix" values="0 0 0 0 0 0 0 0 0 0 0 0 0 0 0 0 0 0 127 0" result="hardAlpha"/>
<feOffset dy="2"/>
<feGaussianBlur stdDeviation="3"/>
<feColorMatrix type="matrix" values="0 0 0 0 0 0 0 0 0 0 0 0 0 0 0 0 0 0 0.15 0"/>
<feBlend mode="normal" in2="BackgroundImageFix" result="effect1_dropShadow_20673_2"/>
<feBlend mode="normal" in="SourceGraphic" in2="effect1_dropShadow_20673_2" result="shape"/>
</filter>
<linearGradient id="paint0_linear_20673_2" x1="30" y1="157" x2="30" y2="217" gradientUnits="userSpaceOnUse">
<stop stop-color="#8EE902"/>
<stop offset="1" stop-color="#4F9C2C"/>
</linearGradient>
<linearGradient id="paint1_linear_20673_2" x1="178" y1="77.9999" x2="51.2076" y2="77.9999" gradientUnits="userSpaceOnUse">
<stop stop-color="#8EE901"/>
<stop offset="1" stop-color="#4F9C2C"/>
</linearGradient>
</defs>
</svg>
